<svg width="980" height="260" viewBox="0 0 980 260" fill="none" xmlns="http://www.w3.org/2000/svg">
  <rect width="980" height="260" fill="#06110F"/>

  <g transform="translate(60 45)" filter="url(#glow)">
    <path d="M0 150V100L104 0C119 -14 144 -3 144 18C144 25 141 31 136 36L20 150H0Z" fill="#37FF68"/>
    <path d="M66 150V110L185 -9C200 -24 226 -12 226 9C226 16 223 22 218 28L96 150H66Z" fill="#37FF68"/>
    <path d="M136 150V118L197 57C211 43 235 53 235 73C235 80 232 86 228 90L169 150H136Z" fill="#37FF68"/>
    <circle cx="223" cy="147" r="24" fill="#37FF68"/>
  </g>

  <text x="350" y="116" fill="#F4F7F5" font-family="Inter, Montserrat, Arial, sans-serif" font-size="58" font-weight="600" letter-spacing="28">
    RENDI
  </text>
  <text x="353" y="162" fill="#37FF68" font-family="Inter, Montserrat, Arial, sans-serif" font-size="16" font-weight="600" letter-spacing="8">
    ENTENDÉ TU INVERSIÓN
  </text>

  <defs>
    <filter id="glow" x="40" y="17" width="285" height="202" filterUnits="userSpaceOnUse" color-interpolation-filters="sRGB">
      <feFlood flood-opacity="0" result="BackgroundImageFix"/>
      <feColorMatrix in="SourceAlpha" type="matrix" values="0 0 0 0 0 0 0 0 0 0 0 0 0 0 0 0 0 0 127 0" result="hardAlpha"/>
      <feOffset/>
      <feGaussianBlur stdDeviation="8"/>
      <feComposite in2="hardAlpha" operator="out"/>
      <feColorMatrix type="matrix" values="0 0 0 0 0.215686 0 0 0 0 1 0 0 0 0 0.407843 0 0 0 0.45 0"/>
      <feBlend mode="normal" in2="BackgroundImageFix" result="effect1_dropShadow"/>
      <feBlend mode="normal" in="SourceGraphic" in2="effect1_dropShadow" result="shape"/>
    </filter>
  </defs>
</svg>
